<?xml version="1.0" encoding="utf-8"?>
<!-- Generator: Adobe Illustrator 28.1.0, SVG Export Plug-In . SVG Version: 6.00 Build 0)  -->
<svg version="1.1" id="Calque_1" xmlns="http://www.w3.org/2000/svg" xmlns:xlink="http://www.w3.org/1999/xlink" x="0px" y="0px"
	 viewBox="0 0 1366 768" style="enable-background:new 0 0 1366 768;" xml:space="preserve">
<style type="text/css">
	.st0{fill:#3A5C26;}
</style>
<g>
	<g>
		<path class="st0" d="M138.69,317.71c9.2,0,17.63,1.99,25.31,5.98c7.67,3.99,14.34,9.24,20.02,15.76
			c5.67,6.52,10.08,13.92,13.23,22.2c3.14,8.28,4.72,16.72,4.72,25.31c0,11.5-1.96,21.7-5.87,30.59
			c-3.91,8.9-9.09,16.38-15.53,22.43c-6.44,6.06-13.92,10.66-22.43,13.8c-8.51,3.15-17.37,4.72-26.57,4.72
			c-7.06,0-13.69-1.22-19.9-3.68c-6.21-2.45-12-5.06-17.37-7.82v9.89H57.94l-1.38-185.43l53.14-4.14l-2.07,59.81
			c4.75-2.61,9.35-4.83,13.8-6.67C125.88,318.63,131.63,317.71,138.69,317.71z M134.54,410.42c3.68-1.07,6.82-2.57,9.43-4.48
			c2.61-1.92,4.72-4.1,6.33-6.56s2.65-5.06,3.1-7.82c0.46-2.76,0.31-5.52-0.46-8.28c-0.77-2.76-2.07-5.18-3.91-7.25
			c-1.84-2.07-4.11-3.76-6.79-5.06c-2.69-1.3-5.68-2.07-8.97-2.3c-3.3-0.23-6.79,0.2-10.47,1.27c-3.68,1.08-6.86,2.61-9.55,4.6
			c-2.68,2-4.83,4.22-6.44,6.67s-2.64,5.06-3.1,7.82c-0.46,2.76-0.31,5.52,0.46,8.28c0.76,2.76,2.07,5.18,3.91,7.25
			c1.84,2.07,4.1,3.72,6.79,4.94c2.68,1.23,5.71,1.96,9.09,2.19C127.33,411.92,130.87,411.5,134.54,410.42z"/>
		<path class="st0" d="M339.75,378.21c1.53,10.58,1.04,20.44-1.49,29.56c-2.53,9.13-6.6,17.18-12.19,24.16
			c-5.6,6.98-12.58,12.73-20.94,17.25c-8.36,4.53-17.68,7.48-27.95,8.86c-10.28,1.38-20.09,1.07-29.45-0.92
			c-9.36-1.99-17.71-5.56-25.07-10.7c-7.36-5.14-13.5-11.73-18.4-19.78c-4.91-8.05-8.05-17.37-9.43-27.95
			c-1.53-10.58-1.04-20.43,1.5-29.56c2.53-9.12,6.59-17.22,12.19-24.27c5.6-7.05,12.57-12.84,20.93-17.37
			c8.36-4.53,17.67-7.48,27.95-8.86c10.27-1.38,20.05-1.07,29.33,0.92c9.28,2,17.6,5.56,24.96,10.7c7.36,5.14,13.49,11.77,18.4,19.9
			C335,358.28,338.22,367.63,339.75,378.21z M243.13,397.77c2.61,5.98,6.75,9.89,12.42,11.73c5.67,1.84,12.11,1.23,19.32-1.84
			c7.05-3.07,11.92-7.25,14.61-12.54c2.68-5.29,2.8-10.93,0.35-16.91c-2.61-5.83-6.75-9.7-12.42-11.61
			c-5.68-1.92-12.04-1.34-19.09,1.73c-7.21,3.07-12.16,7.29-14.84,12.65C240.79,386.34,240.68,391.94,243.13,397.77z"/>
		<path class="st0" d="M481.69,378.21c1.53,10.58,1.04,20.44-1.49,29.56c-2.53,9.13-6.6,17.18-12.19,24.16
			c-5.6,6.98-12.58,12.73-20.94,17.25c-8.36,4.53-17.68,7.48-27.95,8.86c-10.28,1.38-20.09,1.07-29.45-0.92
			c-9.36-1.99-17.71-5.56-25.07-10.7c-7.36-5.14-13.5-11.73-18.4-19.78c-4.91-8.05-8.05-17.37-9.43-27.95
			c-1.53-10.58-1.04-20.43,1.5-29.56c2.53-9.12,6.59-17.22,12.19-24.27c5.6-7.05,12.57-12.84,20.93-17.37
			c8.36-4.53,17.67-7.48,27.95-8.86c10.27-1.38,20.05-1.07,29.33,0.92c9.28,2,17.6,5.56,24.96,10.7c7.36,5.14,13.49,11.77,18.4,19.9
			C476.94,358.28,480.16,367.63,481.69,378.21z M385.07,397.77c2.61,5.98,6.75,9.89,12.42,11.73c5.67,1.84,12.11,1.23,19.32-1.84
			c7.05-3.07,11.92-7.25,14.61-12.54c2.68-5.29,2.8-10.93,0.35-16.91c-2.61-5.83-6.75-9.7-12.42-11.61
			c-5.68-1.92-12.04-1.34-19.09,1.73c-7.21,3.07-12.16,7.29-14.84,12.65C382.73,386.34,382.62,391.94,385.07,397.77z"/>
		<path class="st0" d="M486.98,274.46l52.22-4.14l-4.6,97.09h0.46l21.86-46.7l50.84,4.14l-29.91,57.97l34.51,53.14l-47.85,23.7
			l-29.91-57.74h-0.46l1.84,53.6l-47.85,4.14L486.98,274.46z"/>
		<path class="st0" d="M713.68,317.71c9.2,0,17.63,1.99,25.31,5.98c7.67,3.99,14.34,9.24,20.02,15.76
			c5.67,6.52,10.08,13.92,13.23,22.2c3.14,8.28,4.72,16.72,4.72,25.31c0,11.5-1.96,21.7-5.87,30.59
			c-3.91,8.9-9.09,16.38-15.53,22.43c-6.44,6.06-13.92,10.66-22.43,13.8c-8.51,3.15-17.37,4.72-26.57,4.72
			c-7.06,0-13.69-1.22-19.9-3.68c-6.21-2.45-12-5.06-17.37-7.82v9.89h-36.35l-1.38-185.43l53.14-4.14l-2.07,59.81
			c4.75-2.61,9.35-4.83,13.8-6.67C700.87,318.63,706.62,317.71,713.68,317.71z M709.53,410.42c3.68-1.07,6.82-2.57,9.43-4.48
			c2.61-1.92,4.72-4.1,6.33-6.56s2.65-5.06,3.1-7.82c0.46-2.76,0.31-5.52-0.46-8.28c-0.77-2.76-2.07-5.18-3.91-7.25
			c-1.84-2.07-4.11-3.76-6.79-5.06c-2.69-1.3-5.68-2.07-8.97-2.3c-3.3-0.23-6.79,0.2-10.47,1.27c-3.68,1.08-6.86,2.61-9.55,4.6
			c-2.68,2-4.83,4.22-6.44,6.67c-1.61,2.45-2.64,5.06-3.1,7.82c-0.46,2.76-0.31,5.52,0.46,8.28c0.76,2.76,2.07,5.18,3.91,7.25
			c1.84,2.07,4.1,3.72,6.79,4.94c2.68,1.23,5.71,1.96,9.09,2.19C702.32,411.92,705.85,411.5,709.53,410.42z"/>
		<path class="st0" d="M857.1,437.11h-0.46c-3.07,8.44-7.86,14.42-14.38,17.95c-6.52,3.53-14.15,5.29-22.89,5.29
			c-11.5,0-20.82-3.41-27.95-10.24c-7.13-6.82-10.7-16.75-10.7-29.79v-96.62l51.3-4.14l-1.38,85.12c-0.15,3.68,0.65,6.33,2.42,7.94
			c1.76,1.61,4.49,2.41,8.17,2.41c3.07,0,5.56-0.77,7.48-2.3c1.92-1.53,2.8-4.14,2.65-7.82l-1.38-81.21l52.91-4.14l-3.45,136.88
			l-42.33,1.84V437.11z"/>
		<path class="st0" d="M1045.87,455.74l-45.09,2.99v-13.11h-0.46c-3.68,4.91-8.71,8.47-15.07,10.7c-6.36,2.22-12.77,3.33-19.21,3.33
			c-7.82,0-15.38-1.58-22.66-4.72c-7.29-3.14-13.77-7.66-19.44-13.57c-5.68-5.91-10.2-13.15-13.57-21.74
			c-3.37-8.58-5.06-18.32-5.06-29.21c0-9.81,1.42-19.05,4.26-27.72c2.84-8.66,6.94-16.25,12.31-22.78c5.37-6.51,12-11.65,19.9-15.41
			c7.9-3.75,16.91-5.63,27.03-5.63c5.06,0,9.97,0.65,14.72,1.95c4.75,1.3,8.89,3.49,12.42,6.56l-2.07-54.75l52.91-4.14
			L1045.87,455.74z M982.15,410.19c3.37-1.22,6.21-2.88,8.51-4.95s4.1-4.37,5.41-6.9c1.3-2.53,2.03-5.18,2.19-7.93
			c0.15-2.76-0.23-5.44-1.15-8.05c-0.92-2.45-2.34-4.68-4.25-6.67c-1.92-1.99-4.18-3.57-6.79-4.72c-2.61-1.15-5.49-1.8-8.63-1.95
			c-3.14-0.15-6.41,0.38-9.78,1.61c-3.53,1.22-6.44,2.91-8.74,5.06c-2.3,2.15-4.11,4.48-5.41,7.02c-1.3,2.53-2.03,5.21-2.19,8.05
			c-0.15,2.84,0.23,5.49,1.15,7.93c0.92,2.61,2.34,4.87,4.26,6.78c1.91,1.92,4.18,3.45,6.79,4.6c2.6,1.15,5.48,1.77,8.63,1.84
			C975.28,412,978.62,411.42,982.15,410.19z"/>
		<path class="st0" d="M1182.26,455.74l-45.09,2.99v-13.11h-0.46c-3.68,4.91-8.71,8.47-15.07,10.7c-6.36,2.22-12.77,3.33-19.21,3.33
			c-7.82,0-15.38-1.58-22.66-4.72c-7.29-3.14-13.77-7.66-19.44-13.57c-5.68-5.91-10.2-13.15-13.57-21.74
			c-3.37-8.58-5.06-18.32-5.06-29.21c0-9.81,1.42-19.05,4.26-27.72c2.84-8.66,6.94-16.25,12.31-22.78c5.37-6.51,12-11.65,19.9-15.41
			c7.9-3.75,16.91-5.63,27.03-5.63c5.06,0,9.97,0.65,14.72,1.95c4.75,1.3,8.89,3.49,12.42,6.56l-2.07-54.75l52.91-4.14
			L1182.26,455.74z M1118.54,410.19c3.37-1.22,6.21-2.88,8.51-4.95s4.1-4.37,5.41-6.9c1.3-2.53,2.03-5.18,2.19-7.93
			c0.15-2.76-0.23-5.44-1.15-8.05c-0.92-2.45-2.34-4.68-4.25-6.67c-1.92-1.99-4.18-3.57-6.79-4.72c-2.61-1.15-5.49-1.8-8.63-1.95
			c-3.14-0.15-6.41,0.38-9.78,1.61c-3.53,1.22-6.44,2.91-8.74,5.06c-2.3,2.15-4.11,4.48-5.41,7.02c-1.3,2.53-2.03,5.21-2.19,8.05
			c-0.15,2.84,0.23,5.49,1.15,7.93c0.92,2.61,2.34,4.87,4.26,6.78c1.91,1.92,4.18,3.45,6.79,4.6c2.6,1.15,5.48,1.77,8.63,1.84
			C1111.67,412,1115.01,411.42,1118.54,410.19z"/>
		<path class="st0" d="M1248.19,372.69l11.27-50.61l47.39,4.14l-49.23,173.46l-51.99-4.14l19.78-54.06l-43.25-113.18l50.15-6.21
			l15.41,50.61H1248.19z"/>
	</g>
	<g>
		<path class="st0" d="M1300.09,270.66c2.71,1.45,4.87,3.47,6.48,6.06c1.62,2.59,2.42,5.41,2.42,8.48c0,3.07-0.83,5.98-2.48,8.73
			c-1.66,2.75-3.88,4.97-6.67,6.67s-5.8,2.55-9.03,2.55c-3.15,0-6.02-0.83-8.61-2.48c-2.59-1.66-4.63-3.84-6.12-6.54
			c-1.5-2.71-2.24-5.55-2.24-8.54c0-3.07,0.81-5.92,2.42-8.54c1.62-2.62,3.76-4.71,6.42-6.24c2.67-1.53,5.49-2.3,8.48-2.3
			C1294.41,268.48,1297.38,269.21,1300.09,270.66z M1300.71,295.02c2.87-2.73,4.31-6.04,4.31-9.94c0-3.6-1.41-6.6-4.24-8.99
			c-2.83-2.39-6.04-3.58-9.65-3.58c-4,0-7.21,1.15-9.65,3.44c-2.44,2.29-3.65,5.48-3.65,9.57c0,4,1.22,7.26,3.65,9.79
			c2.43,2.53,5.5,3.8,9.21,3.8C1294.5,299.11,1297.83,297.75,1300.71,295.02z M1294.09,287.75c0.65,1.37,1.53,2.06,2.67,2.06v4.36
			c-1.45,0-2.85-0.55-4.18-1.64c-1.33-1.09-2.24-2.36-2.73-3.82h-0.36v3.88h-4.36v-14.54c0.48-0.32,1.15-0.59,2-0.79
			c0.85-0.2,1.68-0.3,2.48-0.3c2.42,0,4.24,0.55,5.45,1.64s1.82,2.57,1.82,4.42C1296.88,285.13,1295.95,286.7,1294.09,287.75z
			 M1291.43,283.75c0.56-0.32,0.85-0.73,0.85-1.21c0-0.56-0.18-1.01-0.55-1.33c-0.36-0.32-0.83-0.48-1.39-0.48
			c-0.32,0-0.61,0.04-0.85,0.12v3.39C1290.21,284.24,1290.86,284.08,1291.43,283.75z"/>
	</g>
</g>
</svg>
