<?xml version="1.0" encoding="utf-8"?>
<!-- Generator: Adobe Illustrator 28.1.0, SVG Export Plug-In . SVG Version: 6.00 Build 0)  -->
<svg version="1.1" id="Calque_1" xmlns="http://www.w3.org/2000/svg" xmlns:xlink="http://www.w3.org/1999/xlink" x="0px" y="0px"
	 viewBox="0 0 768 768" style="enable-background:new 0 0 768 768;" xml:space="preserve">
<style type="text/css">
	.st0{fill:#8EBE21;}
	.st1{fill:#3A5C26;}
</style>
<g>
	<path class="st0" d="M561.32,424.94c-7.39-26.02-15.52-53.74-23.35-79.16c0,0-0.23-7.54,7.15-16.04
		c3.65-4.21,7.05-8.68,10.01-13.61c9.07-15.07,13.87-31.72,16.96-48.98c-5.8-2.98-11.28-6.8-16.2-10.94
		c-4.94,11.8-12.31,23.63-22.07,32.34c-7.25,6.47-13.13,0.27-13.13,0.27c-21.81-69.7-39.78-144.55-59.57-214.66
		c-0.28-1.09-1.35-1.65-2.39-1.8c-5.52-1.43-11.2-2.72-16.83-3.72c-80.98-13.11-165.03-11.65-244.71,8.98
		c35.46,128.05,71.83,256.62,119.33,380.78C396.36,441.81,481.38,436.13,561.32,424.94z M424.94,224.01
		c-7.09-17.98-10.5-41.18,0.07-57.74c11.13-15.72,33.59-11.89,43.65,2.83c8.83,11.83,12.74,25.59,14.89,39.72
		c0.83,6.35,1.26,12.74,0.57,19.31c2.15,0.76,4.26,1.74,6.26,2.96c-22.5,1.76-32.52,2.52-44.59,22.5
		c0.46-10.81-0.74-20.61-13.87-20.28c-10.41,0.43-20.5,5.33-23.81,16.67C403.51,238.12,413.62,227.19,424.94,224.01z M275.24,277.52
		c6-18.2,24.91-25.89,41.89-22.22c-8.07-24.33-15.22-63.35,5.35-83.53c11.7-10.74,30.87-11.04,43.63-2.04
		c21.74,16.33,28.11,45.26,30.07,70.63c0.09,1.33,0.17,2.63,0.26,3.93l0.15,3.54l-3.17-0.61c-21.5,1.24-43.31,3.8-62.26,14.26
		c6.57,4.8,12.04,11.78,14.63,19.48c16.94,1.61,34.41,0.85,51.44,0.41c24.48-1.13,49.37-2.93,72.79-10.07
		c5.7-1.89,11.41-3.54,14.98-8.94c-0.24,6.07-3.98,10.98-9.91,14.98c0,0.09,0,0.17,0,0.26l-0.02,2.35
		c-0.09,11.37-0.04,23.44-0.35,34.76c-15.26,11.87-34.09,16.94-52.81,20.04c20.28,21.85,55.98,14.24,55.98,14.24
		c-66.33,47.52-130.53,12.26-138.68-28.78c-3.63,4.26-8.35,7.7-14.15,9.7C360.27,292.91,313.7,240.23,275.24,277.52z"/>
	<path class="st0" d="M556.93,444.33l-4.33,22.68c-20.48,5.78-68.72,15.02-119.25,23.54c2.61,2,6.7,5.13,9.09,7.28
		c40.44-7.48,80.46-15.81,120.14-26.63c-0.04-0.07-0.65-2.87-0.7-3.07C560.1,460.24,558.39,452.29,556.93,444.33z"/>
	<path class="st0" d="M283.13,508.83c-6.3,5.8-11,10.11-11.83,10.91c13.09,0.43,26.37-0.96,39.35-2.13
		c8.5-3.67,19.15-5.63,28.57-3.37c0.02,0,0.09,0,0.11,0c5.83-1.15,12.35-0.48,17.65-3.52c0.85-0.93,1.63-1.89,2.37-2.89
		c-2.35-1.13-7.78-3.07-10.22-4.13C326.48,506.9,291.39,511.42,283.13,508.83z"/>
	<path class="st0" d="M189.74,80.59c-23.22,17.74-45.76,39.22-60.57,64.53c13.11,69.09,34.33,136.03,57.05,202.6
		c8.65-6.11,17.81-11.04,27.31-14.22c-23.39-67.46-43.63-136.57-54.31-207.25c20.31,68.4,41.28,136.79,63.44,204.73
		c3.98-0.83,8-1.33,12.04-1.46c-35.11,15.91-62.7,44.22-85.03,75.07c10.57,1.76,19.98,3.93,29.74,8.74
		c16.83-25.28,45.57-42.52,75.94-44.72c-5.94,2.67-11.72,5.57-17.33,8.74c7.67,22.85,15.46,45.63,23.46,68.33
		c-10.89-21.07-20.74-42.65-29.76-64.59c-9.41,5.83-18.24,12.81-26.02,20.65c15.28,40.26,33.15,80.2,55.61,117.07
		c16.78-18.35,31.13-38.89,48.31-56.87C257.09,339.24,220.95,210.17,189.74,80.59z"/>
</g>
<g>
	<path class="st1" d="M666.59,92.14c-9.94,6.28-18.91,15.15-26.22,25.24c2.41-17.65,5.44-47.09-14.44-56.07
		c-9.07-3.98-20.52-0.46-26.41,6.87c-11.87,15.04-14.02,37.02-11.74,56.29c-46.61-23.72-53.81,49.22-35.74,77.53
		c-7.76,1.04-14.81,7.85-16.28,15.7c-2.48,11.7,4.09,22.81,11.87,30.81c-4.95,9.91-11.54,21.83-18.22,30.72l-0.04-0.15
		c-17.85-68.33-41.48-139.09-60.98-206.97c-0.96-3.52-4-6.28-7.57-7.04c-14.87-4.13-30.18-6.5-45.39-8.74
		c-74.9-10.07-152.29-11.8-225.73,8.2c-2.09,0.74-4.04,1.72-5.94,2.83c-13.31,8.41-23.7,21.13-33.44,33.22
		c-10.57,13.91-21.28,27.63-29.05,43.42c13.91,71.63,29.68,143.31,54.2,212.14c-16.31,13.98-30.15,31.57-39.81,47.89
		c-6.17,0.52-12.17,2.2-17.67,5.74c-9.13,6.02-12.91,19.83-6.11,28.74c-36.22,6.8-48.42,47.05-48.29,79.42
		c0.17,16.33-0.43,39.24,12.13,51.63c6.8,6.67,17.78,6.48,25.81,2.37c10.09,19.48,32.91,28.91,48.13,10.24
		c10.87,6.98,24.31,6.59,33.48-6.87c7.57-12.57-1.7-22.94-8.91-33.68c10.44,4.46,22.89,5.44,32.55-1.83
		c11.7-9.44,9.24-27.72-1.48-36.68c-1.7-1.85-2.41-4.59-2.89-8.37c-0.59-12.39-2.65-23.85-8.89-32.07c4.91-2.59,8.11-7.91,9.3-13.28
		c2.5-12.44-3.83-22.37-13.04-29.57c2.37-3,4.76-5.91,7.26-8.78c17.44,40.7,38.81,80.2,61.68,118.22c0.54,0.87,1.41,1.48,2.41,1.63
		c3.43,0.5,26.61,1.04,31.76,0.67c-2.78,3.91-4.7,8.28-5.65,12.91c-14.74-1.5-29.22,8.5-34.81,22.15
		c-3.39,8.02-4.15,16.85-3.87,25.46c0.33,13.91,2.54,27.7,6.26,41.09c9.78,35.85,34.72,71.35,72.57,80.5
		c38.52,10.5,84.48-7.46,89.94-50.83c2.39-17.61-5.22-36.83-20.72-46.15c-7.65-4.89-16.13-7.3-24.83-8
		c-5.35-1.74-9.54-6.02-11.85-10.98c12.48-7.04,21.96-22.65,16.07-36.91c9.5-6.59,18.39-14.54,25.5-23.89
		c16.61,15.96,29.61,35.09,40.68,55.2c-7.37,15.74-10.8,38.02,3.13,51.37c2.72,2.57,6.41,3.89,10.2,4.09
		c-2.72,8-4.33,16.31-3.63,24.81c1.07,31.78,39.09,47.52,66.55,39.33c8.28-3,14.67-9.7,21.78-14.72
		c26.57-21.11,52.52-43.7,71.61-72.16c32.81-47.68,19.5-103.72-44.33-106.29c-29.85,0.74-54.11,19.85-71.57,42.92
		c-4.52-2.46-10.22-2.96-15.76-2.13c-3.04-17.98-13.94-37.02-28.74-52.76c38.39-8.13,76.74-16.87,114.31-28.37
		c3-1.07,4.85-4.3,4.35-7.39c-3.26-12.46-6.91-24.85-11.15-37.02l0.15-0.85c2.07-0.3,4.26-0.63,6.3-0.91
		c2.8-0.2,4.98-3.48,4.02-6.24l-0.07-0.2l-0.13-0.43c-0.3-1.07-1.13-3.96-1.43-5.07c-7.58-26.14-14.77-52.55-21.8-78.97
		c18.99-16.33,33.98-44.76,38.13-69.25c13.65,4.02,31.22,0.28,30.87-16.15c37.46,6.52,67.22-30.81,75.16-63.7
		c2.33-10.24,2.24-23.44-5-32.37c-1.43-2.09-3.72-3.72-6.02-4.74c9.98-9.87,17.78-22.13,21.48-35.09
		C706.89,96.81,688.22,78.79,666.59,92.14z M597.15,112.99c1.28-12.63,6.24-45.37,24.04-40c16.2,8.74,6.78,56.72,4.24,72.85
		c-5.2-0.72-10.46-0.28-15.61,0.7c-3.13-6.3-7.65-11.87-13.13-16.28C596.45,124.51,596.54,118.7,597.15,112.99z M193.52,447.68
		c-0.28,3.61-2.78,8.04-6.2,8.98c-4.09-2.91-9.2-4.98-15.7-5.94c18.28,13.37,18.41,24.46,19.91,45.33
		c0.39,4.63,2.13,11.89,6.59,15.91c3.07,3.2,4.48,8.3,3.78,12.52c-1.48,11.13-19.67,8.89-26.61,4.04
		c-10.83-7.46-12.13-23.52-13.13-36.46c-4.65,9.8-5.96,22.57-2.28,33.11h-0.11c-1.41,13.5,8.96,25.33,13.81,35.85
		c2.07,4.61,0.91,7.46-2.35,10.52c-13.33,12.02-27.2-9.37-32.2-20.7c-4.89-10.72-7.41-22.63-8.85-35.2
		c-5.72,19.83-2.09,43.85,11.94,59.98c-10.44,12.35-23.04,3.85-30.09-7.35c-9.63-14.26-10.57-30.44-12.81-47.7
		c-7.67,10.26-7.44,26.91-2.13,41.59c-28.68,12.28-20.85-52.87-18.39-67.48c7.48-39.55,28.37-47.5,64.53-53.46
		c-6.98-2.87-14.48-4.09-21.91-3.85c-6.17-7.07-1.54-14.09,3.67-17.11c11.39-5.94,25.46-2.91,37.57-0.02
		C175.87,423.96,194.43,431.57,193.52,447.68z M205.69,401.74c7.78-7.85,16.61-14.83,26.02-20.65
		c9.02,21.94,18.87,43.52,29.76,64.59c-8-22.7-15.78-45.48-23.46-68.33c5.61-3.17,11.39-6.07,17.33-8.74
		c-30.37,2.2-59.11,19.44-75.94,44.72c-9.76-4.8-19.17-6.98-29.74-8.74c22.33-30.85,49.92-59.16,85.03-75.07
		c-4.04,0.13-8.07,0.63-12.04,1.46c-22.15-67.94-43.13-136.33-63.44-204.73c10.67,70.68,30.91,139.79,54.31,207.25
		c-9.5,3.17-18.65,8.11-27.31,14.22c-22.72-66.57-43.94-133.51-57.05-202.6c14.81-25.31,37.35-46.79,60.57-64.53
		c31.22,129.57,67.35,258.64,119.88,381.35c-17.17,17.98-31.52,38.52-48.31,56.87C238.85,481.94,220.98,442,205.69,401.74z
		 M374.03,618.3c60.39,20.13,25.46,101.81-43.57,83.55c-33.44-8.8-52.16-41.44-61.55-72.76c-3.72-12.17-6.09-24.87-7-37.59
		c-0.46-6.87-0.57-13.94,1.7-20.48c3.02-9.59,12.94-17.33,22.94-17.65c1.89,27.98,35.59,58.29,65.16,48
		c0.91,2.89,2.57,5.54,4.61,7.83c-7.24,0.96-14.39,2.87-21.04,5.35l0.15,0.74C348.68,614.64,361.46,614.67,374.03,618.3z
		 M347.05,590.86c-21.61,5.09-44.61-17.26-47.83-37.72c-2-19.87,24.13-33.63,41.2-29.24c-10.09,6.96-22.98,15.13-21.22,29.28
		c5.46,25.98,31.11,21.96,49.59,12.02C370.96,577.25,358.74,588.69,347.05,590.86z M349.42,559.47c-6.41,1.2-13,1.96-16.33-4.15
		c-3.87-6.07-0.43-10.63,4.85-15.37c10.04-8.44,22.44-16.83,28.96-28.5c10.02,5.3,19.33,11.8,27.87,19.22
		C382.18,544.23,365.83,554.9,349.42,559.47z M508.64,706.02c-3.85,0.33-7.78,0.17-11.67-0.48c-8.52-5.61-13.48-17.2-9.54-26.68
		l40.68,17.61C522.32,701.21,516.64,705.54,508.64,706.02z M535.3,690.76c-0.17,0.11-0.35,0.26-0.52,0.39l-43.37-18.78
		c7.11-7.67,14.48-14.85,21.2-22.74l46.83,20.28C551.56,677.15,543.43,684.08,535.3,690.76z M565.41,664.28l-47.74-20.68
		c6.37-7.65,11.96-16.04,16.96-24.57l51.98,22.52C580.04,649.52,572.89,657.06,565.41,664.28z M591.45,635.45l-52.96-22.96
		c5.07-8.52,10.22-16.98,16.59-24.72l52.42,22.7C602.89,619.25,597.5,627.56,591.45,635.45z M616.39,580.45c0,0,0.2,0.04,0.48,0.09
		c-0.59,7.33-2.61,15.13-6.07,23.15l-50.81-22c4.89-5.98,10.11-11.8,16.65-15.81C592.06,555.38,616.87,558.1,616.39,580.45z
		 M567.5,531.99c22.83,0.63,38.11,9.96,45.13,24.13c-39.7-25.26-73.72,35.7-89.64,64.35c-7.83,13.17-17.61,24.87-27.76,36.42
		c-13.39,13.31-22.5,27.26-9.65,45.31c-23.89-10.04-26.39-34.5-16.33-56c4.35-9.39,10.78-19.41,14.54-30.78
		C493.9,577.92,525.78,533.92,567.5,531.99z M486.06,569.01c1.39-0.11,2.87-0.07,4.33,0.22c-7.15,10.59-13,21.91-16.54,34.26
		c-2.93,12.7-9.54,23.83-15.02,35.65c-7.07,0.35-10.96-7.28-11.46-14.76C445.38,602.97,463.58,571.84,486.06,569.01z M472.21,561.42
		c-10.41,4.39-18.78,12.63-25,21.81c-16.76-39.5-49.89-73.46-90.87-87.68c-19.54,2.28-56.63,9.24-72.81,12.89
		c-0.13,0.15-0.26,0.26-0.39,0.39c8.26,2.59,43.35-1.93,66-5.13c2.43,1.07,7.87,3,10.22,4.13c-0.74,1-1.52,1.96-2.37,2.89
		c-5.3,3.04-11.83,2.37-17.65,3.52c-0.02,0-0.09,0-0.11,0c-9.41-2.26-20.07-0.3-28.57,3.37c-12.98,1.17-26.26,2.57-39.35,2.13
		c0.83-0.8,5.52-5.11,11.83-10.91c-0.2-0.04-0.37-0.11-0.52-0.17c0.3-0.07,0.59-0.13,0.91-0.22c11.65-10.74,28.5-26.44,36.5-34.89
		c75.57-15.61,154.66-27.81,231.16-39.48l-5.33,27.89c-38.68,9.07-87.83,18-133.59,25.24C439.73,504.42,459.03,532.07,472.21,561.42
		z M561.89,468.14c0.04,0.2,0.65,3,0.7,3.07c-39.68,10.83-79.7,19.15-120.14,26.63c-2.39-2.15-6.48-5.28-9.09-7.28
		c50.52-8.52,98.77-17.76,119.25-23.54l4.33-22.68C558.39,452.29,560.1,460.24,561.89,468.14z M316.53,458.4
		c-47.5-124.16-83.87-252.73-119.33-380.78c79.68-20.63,163.73-22.09,244.71-8.98c5.63,1,11.3,2.28,16.83,3.72
		c1.04,0.15,2.11,0.72,2.39,1.8c19.78,70.11,37.76,144.96,59.57,214.66l17.28,56.96c7.83,25.41,15.96,53.13,23.35,79.16
		C481.38,436.13,396.36,441.81,316.53,458.4z M555.13,316.13c-2.55,4.25-7.97,10.8-11.76,15.23l-10.9-40.72
		c9.68-8.73,18.52-22.7,23.42-34.42c4.91,4.13,10.39,7.96,16.2,10.94C569,284.41,564.19,301.06,555.13,316.13z M672.68,206.01
		c-12.22,24.15-41.18,50.05-68.68,34.41c-5.2-2.54-10.17-5.78-16.87-8.41c2.37,9.54,9.89,17,18.76,20.81
		c1.54,7.35-5.22,10.52-13.41,8.8c-4.54-0.91-9.22-2.76-13.67-5.22c-12.26-7.28-26.59-17.17-31.65-30.85
		c-2.85-7.39,3.02-16.89,10.74-15.07c0,0,0.17-0.35,0.46-0.85c2.43,2.15,5.15,3.87,8.26,4.94c-1.87-3.8-3.59-7.15-5.22-10.46
		c0.09-0.15,0.15-0.24,0.15-0.24c-0.13-0.07-0.24-0.11-0.35-0.17c-10.31-19.65-12.85-46.76-2.2-66.48
		c4.89-7.94,10.8-9.28,18.83-5.98c11.85,4.22,21.44,14.74,23.96,26.98c2.8,12.02-4.17,20.33-15.98,15.13
		c-7.2-4.5-10.15-11.96-14.67-20c-8.33,14.02,4.46,32.78,20.11,33.24c21.76,1.15,27.65-21.44,19.52-38.13
		c6.37,0.74,13.2,2.11,18.61,5.2c5.54,3.04,9.35,7.78,13.48,12.44c-15.17,11.3-27.76,28.11-26.15,40.42
		c1.2,11.91,15.41,19.81,26.31,16.13c14.07-4.17,25.94-20.13,20.31-34.61c-5.15,9.22-22.63,32.2-32.94,18.78
		c-4.35-13.26,32.26-45.57,44.92-40.61C684.55,176.75,678.2,194.51,672.68,206.01z M680.55,135.51
		c-4.46,6.96-9.83,13.63-15.96,19.39c-4.63,1.22-9.5,3.39-14.31,6.24c-4.22-5.91-10.2-10.7-17-13.31
		c8.94-17.37,22.7-34.85,39.35-44.98c7.52-4.5,14.85-4.09,16.61,5.33C690.33,117.7,685.63,127.1,680.55,135.51z"/>
	<path class="st1" d="M483.56,208.82c-2.15-14.13-6.07-27.89-14.89-39.72c-10.07-14.72-32.52-18.54-43.65-2.83
		c-10.57,16.57-7.15,39.76-0.07,57.74c-11.33,3.17-21.44,14.11-16.83,25.96c3.3-11.35,13.39-16.24,23.81-16.67
		c13.13-0.33,14.33,9.48,13.87,20.28c12.07-19.98,22.09-20.74,44.59-22.5c-2-1.22-4.11-2.2-6.26-2.96
		C484.82,221.56,484.38,215.17,483.56,208.82z M466.25,226.95c-0.35-4.87-1.15-10.48-2.3-15.61l-14.72,2.52l11.35-14.44
		c-4.33-12.3-10.2-20.33-15.07-19.37c-8.11,0.8-8.54,27.81-3.57,45.18c-2.54-1.28-5.44-2.04-8.5-2.15
		c-3.7-15.5-7.09-36.11,1.43-49.72c6.67-8.76,18.35-5.41,24.74,2.98c10.67,13.87,16.24,32.65,18,50.2
		C473.77,225.99,469.9,226.14,466.25,226.95z"/>
	<path class="st1" d="M470.01,271.32c-23.41,7.13-48.31,8.94-72.79,10.07c-17.02,0.43-34.5,1.2-51.44-0.41
		c-2.59-7.7-8.07-14.67-14.63-19.48c18.96-10.46,40.76-13.02,62.26-14.26l3.17,0.61l-0.15-3.54c-0.09-1.3-0.17-2.61-0.26-3.93
		c-1.96-25.37-8.33-54.31-30.07-70.63c-12.76-9-31.94-8.7-43.63,2.04c-20.57,20.17-13.41,59.2-5.35,83.53
		c-16.98-3.67-35.89,4.02-41.89,22.22c38.46-37.28,85.03,15.39,49.81,52.42c5.8-2,10.52-5.44,14.15-9.7
		c8.15,41.05,72.35,76.31,138.68,28.78c0,0-35.7,7.61-55.98-14.24c18.72-3.11,37.55-8.17,52.81-20.04
		c0.3-11.33,0.26-23.39,0.35-34.76l0.02-2.35c0-0.09,0-0.17,0-0.26c5.94-4,9.67-8.91,9.91-14.98
		C481.43,267.78,475.71,269.43,470.01,271.32z M324.68,257.8c-0.28-0.13-0.54-0.26-0.83-0.37c-0.22-1.02-0.43-2.13-0.67-3.3
		c-4.61-23.28-10.96-71.5,16-78.4c32.78-6.78,45.52,39.83,51.07,65.09c-5.63-1.48-11.5-2.22-17.41-2.26
		c-0.26-6.09-1.41-13.07-3.15-19.09l-18.11,3.57l12.96-16.89c-5.15-10.07-11.89-16.11-18.02-14.94
		c-13.67,2.37-13.96,36.59-6.41,55.02C334.37,249.21,329.13,253.06,324.68,257.8z M437.27,319.41c-16.41,3.35-33.41,4.8-50.07,3.41
		l-30.41-6.2c-4.15-1.41-8.22-3.07-12.22-4.96c2.65-5.91,3.8-12.57,3.46-19.17c10.15,1.57,20.31,1.74,30.59,1.89
		c15.91,0.02,62.2-1.3,88.16-12.57c0.02,10.22,0.09,18.76,0.26,28.61C457.79,314.58,447.23,317.32,437.27,319.41z"/>
	<path class="st1" d="M331.43,484.26c41.81-0.65,156.34-20.5,196.67-31.44C486.32,453.54,371.78,473.28,331.43,484.26z"/>
</g>
</svg>
