<?xml version="1.0" encoding="utf-8"?>
<!-- Generator: Adobe Illustrator 28.1.0, SVG Export Plug-In . SVG Version: 6.00 Build 0)  -->
<svg version="1.1" id="Calque_1" xmlns="http://www.w3.org/2000/svg" xmlns:xlink="http://www.w3.org/1999/xlink" x="0px" y="0px"
	 viewBox="0 0 768 768" style="enable-background:new 0 0 768 768;" xml:space="preserve">
<style type="text/css">
	.st0{fill:#8EBE21;}
	.st1{fill:#3A5C26;}
</style>
<g>
	<path class="st0" d="M669.73,619.02c0.06,0.26,0.86,3.97,0.92,4.05c-52.44,14.31-105.38,25.23-158.8,35.2
		c-21.26,3.97-99.08,18.62-174.2,26.15c-17.16,1.72-34.71,3.39-52.01,2.82c1.09-1.06,7.3-6.75,15.63-14.43
		c10.92,3.42,57.27-2.67,87.24-6.78c27.59-3.79,77.21-11.81,111.32-17.39c66.84-10.89,130.55-23.48,157.62-31.12l5.72-29.97
		C665.1,598.07,667.37,608.58,669.73,619.02z"/>
	<path class="st0" d="M336.27,610.83c-22.7,23.76-41.67,50.92-63.85,75.17c-29.68-48.74-53.77-101.35-73.51-154.75
		c-6.58-17.79-19.48-53.51-25.75-71.41c-30.78-87.73-58.08-176.47-75.4-267.79c19.57-33.45,49.37-61.84,80.06-85.29
		C219.09,278.03,266.85,448.64,336.27,610.83z M272.65,589.33c-10.57-30-38.77-113.62-51.32-151.61
		c-29.66-89.69-57.01-180.21-83.85-270.61c14.11,93.42,38.54,185.61,71.78,273.94C223.45,478.78,258.25,561.48,272.65,589.33z"/>
	<path class="st0" d="M536.54,98.25c26.15,92.67,122.68,429.26,132.45,463.66c-105.66,14.8-218.05,22.3-323.57,44.23
		c-62.79-164.11-110.87-334.06-157.73-503.32C293,75.55,404.09,73.63,511.13,90.95c7.44,1.32,14.94,3.02,22.24,4.91
		C534.75,96.07,536.16,96.82,536.54,98.25z M575.22,305.67c-2.64-1.61-5.43-2.9-8.28-3.91c0.92-8.68,0.34-17.13-0.75-25.52
		c-2.84-18.68-8.02-36.87-19.68-52.5c-13.3-19.45-42.99-24.51-57.7-3.74c-13.97,21.9-9.45,52.56-0.09,76.32
		c-14.97,4.2-28.33,18.65-22.24,34.31c4.37-15,17.7-21.47,31.47-22.04c17.36-0.43,18.94,12.53,18.33,26.81
		C532.23,309.01,545.47,308,575.22,305.67z M554.99,366.85c7.85-5.29,12.79-11.78,13.1-19.8c-4.71,7.13-12.27,9.31-19.8,11.81
		c-30.95,9.43-63.85,11.81-96.21,13.3c-22.5,0.57-45.6,1.58-67.99-0.55c-3.42-10.17-10.66-19.4-19.34-25.75
		c25.06-13.82,53.88-17.21,82.3-18.85l4.2,0.8l-0.2-4.68c-0.11-1.72-0.23-3.45-0.34-5.2c-2.59-33.54-11.01-71.78-39.74-93.36
		c-16.87-11.9-42.21-11.49-57.67,2.7c-27.18,26.67-17.73,78.25-7.07,110.41c-22.44-4.86-47.44,5.32-55.38,29.37
		c50.83-49.28,112.39,20.35,65.84,69.28c7.67-2.64,13.91-7.18,18.71-12.82c10.78,54.25,95.63,100.86,183.31,38.05
		c0,0-47.19,10.06-74-18.82c24.74-4.11,49.63-10.8,69.8-26.49c0.4-14.97,0.34-30.92,0.46-45.95l0.03-3.1
		C554.99,367.08,554.99,366.97,554.99,366.85z"/>
</g>
<g>
	<path class="st1" d="M568.09,347.05c-0.32,8.02-5.26,14.51-13.1,19.8c0,0.11,0,0.23,0,0.34l-0.03,3.1
		c-0.11,15.03-0.06,30.98-0.46,45.95c-20.17,15.69-45.06,22.39-69.8,26.49c26.81,28.88,74,18.82,74,18.82
		c-87.67,62.82-172.53,16.21-183.31-38.05c-4.8,5.63-11.03,10.17-18.71,12.82c46.55-48.94-15-118.57-65.84-69.28
		c7.93-24.05,32.93-34.23,55.38-29.37l7.99-1.55c0.32,1.55,0.6,3.02,0.89,4.37c0.37,0.14,0.72,0.32,1.09,0.49
		c5.89-6.26,12.82-11.35,20.37-15.29c-9.97-24.37-9.6-69.6,8.48-72.73c8.1-1.55,17.01,6.44,23.82,19.74l-17.13,22.33l23.94-4.71
		c2.3,7.96,3.82,17.18,4.17,25.23c7.82,0.06,15.58,1.03,23.02,2.99l7.85-0.6c0.11,1.75,0.23,3.48,0.34,5.2l0.2,4.68l-4.2-0.8
		c-28.42,1.64-57.24,5.03-82.3,18.85c8.68,6.35,15.92,15.58,19.34,25.75c22.39,2.13,45.49,1.12,67.99,0.55
		c32.36-1.49,65.26-3.88,96.21-13.3C555.82,356.36,563.38,354.18,568.09,347.05z M544.35,410.56c-0.23-13.02-0.32-24.31-0.34-37.82
		c-34.31,14.89-95.49,16.64-116.53,16.61c-13.59-0.2-27.01-0.43-40.43-2.5c0.46,8.74-1.06,17.53-4.57,25.35
		c5.29,2.5,10.66,4.68,16.15,6.55l40.2,8.19c22.01,1.84,44.48-0.09,66.18-4.51C518.17,419.67,532.14,416.05,544.35,410.56z"/>
	<path class="st1" d="M558.35,299.67c-2.33-23.19-9.68-48.02-23.79-66.35c-8.45-11.09-23.88-15.52-32.7-3.94
		c-11.26,17.99-6.78,45.23-1.9,65.72c4.05,0.14,7.87,1.15,11.24,2.84c-6.58-22.96-6.01-58.65,4.71-59.71
		c6.44-1.26,14.2,9.34,19.91,25.6l-15,19.08l19.45-3.33c1.52,6.78,2.59,14.2,3.05,20.63C548.15,299.15,553.26,298.95,558.35,299.67z
		 M575.22,305.67c-29.74,2.33-42.99,3.33-58.94,29.74c0.6-14.28-0.98-27.24-18.33-26.81c-13.76,0.57-27.1,7.04-31.47,22.04
		c-6.09-15.66,7.27-30.12,22.24-34.31c-9.37-23.76-13.88-54.43,0.09-76.32c14.71-20.78,44.4-15.72,57.7,3.74
		c11.67,15.63,16.84,33.82,19.68,52.5c1.09,8.39,1.67,16.84,0.75,25.52C569.78,302.77,572.57,304.06,575.22,305.67z"/>
	<path class="st1" d="M611.25,600.68c-53.31,14.45-108.82,22.39-164.08,23.25C500.5,609.42,556.02,601.63,611.25,600.68z"/>
	<path class="st1" d="M450.7,317.94l-7.85,0.6c-7.33-33.39-24.17-95-67.5-86.04c-35.63,9.11-27.24,72.85-21.15,103.62l-7.99,1.55
		c-10.66-32.16-20.12-83.74,7.07-110.41c15.46-14.2,40.81-14.6,57.67-2.7C439.69,246.16,448.11,284.41,450.7,317.94z"/>
	<path class="st1" d="M679.41,562.17l0.17,0.57l0.09,0.26c1.26,3.65-1.61,7.99-5.32,8.25c-2.7,0.37-5.6,0.8-8.33,1.21l-0.2,1.12
		c5.6,16.09,10.43,32.47,14.74,48.94c0.66,4.08-1.78,8.36-5.75,9.77c-49.66,15.2-100.35,26.75-151.1,37.5
		c-46.93,8.82-146.73,28.13-209.55,33.05c-6.81,0.49-37.44-0.23-41.98-0.89c-1.32-0.2-2.47-1.01-3.19-2.16
		c-30.23-50.26-59.31-102.13-81.53-156.27c-7.41-18.05-21.67-54.34-28.51-72.59c-33.88-90.46-53.25-185.72-71.64-280.41
		c10.26-20.86,24.43-39,38.39-57.39c12.87-15.98,26.61-32.79,44.2-43.91c2.5-1.47,5.09-2.76,7.85-3.74
		c97.07-26.44,199.37-24.14,298.37-10.83c20.12,2.96,40.35,6.09,60,11.55c4.71,1.01,8.74,4.66,10,9.31
		c25.78,89.72,56.15,183.48,80.61,273.57c15.69,57.88,40.69,151.58,50.78,186.38C677.92,556.94,679.01,560.77,679.41,562.17z
		 M301.79,672.29c21.38-4.83,70.4-14.02,96.24-17.04l73.94-11.03c60.49-9.57,125.46-21.38,176.59-33.36l7.04-36.87
		c-101.12,15.43-205.67,31.55-305.55,52.19C339.46,637.35,317.19,658.1,301.79,672.29c-0.43,0.11-0.8,0.2-1.21,0.29
		c0.2,0.09,0.43,0.17,0.69,0.23c-8.33,7.67-14.54,13.36-15.63,14.43c17.3,0.57,34.86-1.09,52.01-2.82
		c75.12-7.53,152.94-22.18,174.2-26.15c53.42-9.97,106.35-20.89,158.8-35.2c-0.06-0.09-0.86-3.79-0.92-4.05
		c-2.36-10.43-4.63-20.95-6.55-31.47l-5.72,29.97c-27.07,7.64-90.78,20.23-157.62,31.12c-34.11,5.57-83.74,13.59-111.32,17.39
		c-29.97,4.11-76.32,10.2-87.24,6.78C301.44,672.64,301.62,672.49,301.79,672.29z M668.98,561.92
		c-9.77-34.4-106.3-370.99-132.45-463.66c-0.37-1.44-1.78-2.18-3.16-2.39c-7.3-1.9-14.8-3.59-22.24-4.91
		C404.09,73.63,293,75.55,187.68,102.82c46.87,169.26,94.95,339.2,157.73,503.32C450.93,584.22,563.32,576.72,668.98,561.92z
		 M272.42,686c22.18-24.25,41.15-51.41,63.85-75.17c-69.43-162.19-117.19-332.8-158.45-504.07c-30.69,23.45-60.49,51.84-80.06,85.29
		c17.33,91.32,44.63,180.06,75.4,267.79c6.26,17.9,19.17,53.62,25.75,71.41C218.65,584.65,242.74,637.26,272.42,686z"/>
	<path class="st1" d="M221.33,437.72c12.56,37.99,40.75,121.61,51.32,151.61c-14.4-27.85-49.2-110.55-63.39-148.28
		c-33.25-88.34-57.67-180.52-71.78-273.94C164.31,257.51,191.67,348.03,221.33,437.72z"/>
</g>
</svg>
